<svg xmlns="http://www.w3.org/2000/svg" viewBox="0 0 166 226" role="img" aria-label="Escudo imperial del Reino de Umbra Elite">
  <defs>
    <linearGradient id="eliteNight" x1="0" y1="0" x2="1" y2="1">
      <stop offset="0" stop-color="#06070d"/>
      <stop offset=".45" stop-color="#3b2608"/>
      <stop offset=".72" stop-color="#d99a16"/>
      <stop offset="1" stop-color="#07090f"/>
    </linearGradient>
    <radialGradient id="eclipse" cx=".50" cy=".25" r=".37">
      <stop offset="0" stop-color="#020617"/>
      <stop offset=".38" stop-color="#020617"/>
      <stop offset=".42" stop-color="#fde68a" stop-opacity=".82"/>
      <stop offset=".58" stop-color="#f59e0b" stop-opacity=".26"/>
      <stop offset="1" stop-color="#020617" stop-opacity="0"/>
    </radialGradient>
    <radialGradient id="shieldLight" cx=".50" cy=".50" r=".48">
      <stop offset="0" stop-color="#fff7ed" stop-opacity=".72"/>
      <stop offset=".28" stop-color="#facc15" stop-opacity=".42"/>
      <stop offset=".72" stop-color="#92400e" stop-opacity=".12"/>
      <stop offset="1" stop-color="#020617" stop-opacity="0"/>
    </radialGradient>
    <filter id="eliteGlow" x="-45%" y="-45%" width="190%" height="190%">
      <feGaussianBlur stdDeviation="2.5" result="blur"/>
      <feMerge>
        <feMergeNode in="blur"/>
        <feMergeNode in="SourceGraphic"/>
      </feMerge>
    </filter>
  </defs>

  <rect width="166" height="226" rx="13" fill="url(#eliteNight)"/>
  <rect width="166" height="226" fill="url(#eclipse)"/>
  <rect width="166" height="226" fill="url(#shieldLight)" opacity=".72"/>

  <g fill="#080b12" fill-opacity=".72" stroke="#fef3c7" stroke-opacity=".28">
    <path d="M22 59h20v128H22z"/>
    <path d="M124 59h20v128h-20z"/>
    <path d="M17 49h30l-5 10H22z"/>
    <path d="M119 49h30l-5 10h-20z"/>
    <path d="M16 187h134v12H16z"/>
  </g>

  <g filter="url(#eliteGlow)">
    <path d="M83 45 127 64v49c0 43-26 68-44 83-18-15-44-40-44-83V64z" fill="#100f13" fill-opacity=".78" stroke="#fde68a" stroke-width="2.2"/>
    <path d="M83 60 112 73v34c0 27-17 44-29 56-12-12-29-29-29-56V73z" fill="#f59e0b" fill-opacity=".22" stroke="#fff7ed" stroke-opacity=".68" stroke-width="1.2"/>
    <path d="M65 106h36M70 89h26M72 123h22" stroke="#fff7ed" stroke-opacity=".86" stroke-width="2" stroke-linecap="round"/>
    <path d="M83 72v72" stroke="#fde68a" stroke-opacity=".58" stroke-width="1.4" stroke-linecap="round"/>
    <circle cx="83" cy="108" r="43" fill="none" stroke="#fde68a" stroke-opacity=".34"/>
    <circle cx="83" cy="108" r="52" fill="none" stroke="#f59e0b" stroke-opacity=".20"/>
  </g>

  <g stroke="#fde68a" stroke-opacity=".34" stroke-linecap="round">
    <path d="M23 31h120"/>
    <path d="M28 207h110"/>
    <path d="M33 42 133 42M33 201 133 201"/>
    <path d="M53 24v33M113 24v33M53 173v31M113 173v31"/>
  </g>

  <g fill="#fff7ed" fill-opacity=".86">
    <circle cx="35" cy="37" r="1.5"/>
    <circle cx="131" cy="37" r="1.5"/>
    <circle cx="35" cy="196" r="1.5"/>
    <circle cx="131" cy="196" r="1.5"/>
    <circle cx="83" cy="29" r="1.4"/>
    <circle cx="83" cy="203" r="1.4"/>
  </g>
</svg>
